<?xml version="1.0" encoding="UTF-8"?>
<svg width="84px" height="81px" viewBox="0 0 84 81" version="1.1" xmlns="http://www.w3.org/2000/svg" xmlns:xlink="http://www.w3.org/1999/xlink">
    <title>Group 2</title>
    <g id="Page-1" stroke="none" stroke-width="1" fill="none" fill-rule="evenodd">
        <g id="Homepage-Copy-6" transform="translate(-854.000000, -7890.000000)">
            <g id="Group-2" transform="translate(854.000000, 7890.000000)">
                <rect id="Rectangle-Copy-13" fill-opacity="0.45" fill="#4285F4" x="0" y="0" width="84" height="81" rx="27"></rect>
                <path d="M27.0777778,11 L55.9222222,11 C64.249449,11 71,17.8263999 71,26.247191 L71,54.752809 C71,63.1736001 64.249449,70 55.9222222,70 L27.0777778,70 C18.750551,70 12,63.1736001 12,54.752809 L12,26.247191 C12,17.8263999 18.750551,11 27.0777778,11 Z" id="Rectangle-Copy-11" stroke="#4285F4" stroke-width="4"></path>
                <path d="M33.9920594,26.9984195 C33.9920594,29.7534498 31.7552557,31.9868541 28.996032,31.9868541 C26.236793,31.9868541 23.9999893,29.7534498 23.9999893,26.9984195 C23.9999893,24.2433739 26.236793,22.0099848 28.996032,22.0099848 C31.7552557,22.0099848 33.9920594,24.2433739 33.9920594,26.9984195" id="Fill-1" fill-opacity="0.45" fill="#4285F4"></path>
                <path d="M31.9007182,58 L26.0992818,58 C25.492177,58 25,57.5387816 25,56.9698501 L25,36.0301355 C25,35.4612039 25.492177,35 26.0992818,35 L31.9007182,35 C32.5078384,35 33,35.4612039 33,36.0301355 L33,56.9698501 C33,57.5387816 32.5078384,58 31.9007182,58" id="Fill-4" fill-opacity="0.45" fill="#4285F4"></path>
                <path d="M59.9790583,42.504899 L59.9790583,56.5988403 C59.9790583,57.2801438 59.4288107,57.8326224 58.7502583,57.8326224 L53.2834392,57.8326224 C52.6048716,57.8326224 52.0546392,57.2801438 52.0546392,56.5988403 L52.0546392,43.7675826 C52.0546392,41.4236567 50.2396297,39.5235649 48.0008488,39.5235649 C46.174563,39.5235649 44.6303345,40.7877938 44.1232107,42.5260129 C44.0086202,42.9187607 43.9469059,43.3356824 43.9469059,43.7675826 L43.9469059,56.3690361 C43.9469059,57.2697246 43.219744,58.0000031 42.3226773,58.0000031 L37.6374202,58.0000031 C36.7403535,58.0000031 36.0130392,57.2697246 36.0130392,56.3690361 L36.0130392,34.8999419 C36.0130392,33.9992381 36.7403535,33.2689749 37.6374202,33.2689749 L42.3226773,33.2689749 C43.219744,33.2689749 43.9469059,33.9992381 43.9469059,34.8999419 L43.9469059,36.1487179 C45.3744107,34.2383752 47.648544,33.002604 50.2100678,33.002604 C50.4736869,33.002604 50.7342583,33.0157619 50.9911726,33.0413127 C51.2480869,33.0157619 51.5086583,33.002604 51.7722773,33.002604 C55.4859535,33.002604 58.5954392,35.6000643 59.396963,39.0843054 C59.396963,39.0846114 59.3971154,39.0849174 59.3971154,39.0852234 C60.0942583,42.1136812 59.9790583,42.504899 59.9790583,42.504899" id="Fill-6" fill-opacity="0.45" fill="#4285F4"></path>
            </g>
        </g>
    </g>
</svg>